<svg width="128" height="25" viewBox="0 0 128 25" fill="none" xmlns="http://www.w3.org/2000/svg">
    <path d="M7.12806 0.303711H0V19.1326H4.30374V13.2149H7.12806C10.84 13.2149 13.7182 10.3368 13.7182 6.75932C13.7182 3.18183 10.84 0.303711 7.12806 0.303711ZM7.12806 9.18017H4.30374V4.33846H7.12806C8.44608 4.33846 9.41442 5.3875 9.41442 6.75932C9.41442 8.13113 8.44608 9.18017 7.12806 9.18017Z" fill="white"/>
    <path d="M15.9641 19.1326H19.9989V5.68338H15.9641V19.1326Z" fill="white"/>
    <path d="M30.7603 5.30681C28.985 5.30681 27.6401 5.95236 26.9138 6.9476V5.68338H22.8791V19.1326H26.9138V11.7893C26.9138 9.87953 27.936 9.01878 29.4154 9.01878C30.7065 9.01878 31.7555 9.79883 31.7555 11.4665V19.1326H35.7903V10.8748C35.7903 7.24349 33.477 5.30681 30.7603 5.30681Z" fill="white"/>
    <path d="M48.0552 5.68338V7.0552C47.1676 5.95237 45.8765 5.30681 44.1281 5.30681C40.3085 5.30681 37.5111 8.42702 37.5111 12.139C37.5111 15.851 40.3085 18.9712 44.1281 18.9712C45.8765 18.9712 47.1676 18.3256 48.0552 17.2228V18.4601C48.0552 20.3699 46.8986 21.3382 45.0157 21.3382C43.2404 21.3382 42.4604 20.5851 41.9493 19.6436L38.5063 21.6341C39.7436 23.8398 42.0838 24.8888 44.8812 24.8888C48.4587 24.8888 51.9824 22.979 51.9824 18.4601V5.68338H48.0552ZM44.8005 15.2592C42.8907 15.2592 41.5458 13.995 41.5458 12.139C41.5458 10.283 42.8907 9.01878 44.8005 9.01878C46.7103 9.01878 48.0552 10.283 48.0552 12.139C48.0552 13.995 46.7103 15.2592 44.8005 15.2592Z" fill="white"/>
    <path d="M62.4462 5.30681C60.6709 5.30681 59.326 5.95236 58.5997 6.9476V0.303711H54.565V19.1326H58.5997V11.7893C58.5997 9.87953 59.6219 9.01878 61.1013 9.01878C62.3924 9.01878 63.4414 9.79883 63.4414 11.4665V19.1326H67.4762V10.8748C67.4762 7.24349 65.1629 5.30681 62.4462 5.30681Z" fill="white"/>
    <path d="M76.6302 19.5091C80.5843 19.5091 83.7583 16.4158 83.7583 12.408C83.7583 8.40012 80.5843 5.30681 76.6302 5.30681C72.6761 5.30681 69.5021 8.40012 69.5021 12.408C69.5021 16.4158 72.6761 19.5091 76.6302 19.5091ZM76.6302 15.582C74.8818 15.582 73.5369 14.3178 73.5369 12.408C73.5369 10.4982 74.8818 9.23396 76.6302 9.23396C78.3786 9.23396 79.7235 10.4982 79.7235 12.408C79.7235 14.3178 78.3786 15.582 76.6302 15.582Z" fill="white"/>
    <path d="M100.726 5.30681C98.8162 5.30681 97.5789 6.00616 96.8257 7.0821C96.0726 5.95237 94.8891 5.30681 93.302 5.30681C91.4999 5.30681 90.3163 6.00616 89.6977 6.92071V5.68338H85.6629V19.1326H89.6977V11.5472C89.6977 9.96022 90.4508 9.01878 91.7957 9.01878C93.0869 9.01878 93.7324 9.87953 93.7324 11.2244V19.1326H97.7672V11.5472C97.7672 9.96022 98.5203 9.01878 99.8652 9.01878C101.156 9.01878 101.802 9.87953 101.802 11.2244V19.1326H105.837V10.8748C105.837 7.51247 103.819 5.30681 100.726 5.30681Z" fill="white"/>
    <path d="M112.127 14.0219H121.676C121.783 13.5108 121.837 12.9728 121.837 12.408C121.837 8.34632 118.932 5.30681 115.005 5.30681C110.755 5.30681 107.85 8.40012 107.85 12.408C107.85 16.4158 110.701 19.5091 115.301 19.5091C117.856 19.5091 119.847 18.5677 121.165 16.7386L117.937 14.8826C117.399 15.4744 116.458 15.9048 115.355 15.9048C113.875 15.9048 112.638 15.4206 112.127 14.0219ZM112.046 11.0093C112.423 9.63744 113.445 8.88429 114.978 8.88429C116.189 8.88429 117.399 9.44915 117.829 11.0093H112.046Z" fill="white"/>
    <circle cx="18.3628" cy="2.30718" r="2.30718" fill="#00C9BD"/>
    <circle cx="125.693" cy="17.1631" r="2.30718" fill="#2B63E3"/>
</svg>
